# xmcd
#
# Track frame offsets: 
#        150
#        15438
#        31947
#        48904
#        67196
#        83032
#        96459
#        110228
#        125045
#        138332
#        152704
#        162949
#        174994
#        185603
#        196774
#        207977
#        216182
#        227778
#        238094
#        250670
#        262326
#        272839
#        283613
#
# Disc length: 3898 seconds
#
# Revision: 0
# Processed by: cddbd v1.5.2PL0 Copyright (c) Steve Scherf et al.
# Submitted via: ExactAudioCopyFreeDBPlugin 1.0
#
DISCID=570f3817
DTITLE=Hank Snow - Milestones Of A Country Legend [CD 6)
DYEAR=1900
DGENRE=Country
TTITLE0=The Letter Edged in Black
TTITLE1=Old Shep
TTITLE2=The Prisoner´s Prayer
TTITLE3=The Drunkard´s Child
TTITLE4=Don´t Make Me Go to Bed and I´ll Be Good
TTITLE5=The Convict and the Rose
TTITLE6=Put My Little Shoes Away
TTITLE7=Little Buddy
TTITLE8=There´s a Little Box of Pine in the 7:29
TTITLE9=Nobody´s Child
TTITLE10=I´m Here to get My Baby out of Jail
TTITLE11=Moonlight and Skies
TTITLE12=You and My Old Guitar
TTITLE13=Down the Old Road to Home
TTITLE14=I´m Sorry We Met
TTITLE15=Tuck Away My Lonesome Blues
TTITLE16=Blue Yodel No. 10
TTITLE17=One Rose (That´s Left in My Heart)
TTITLE18=Roll Along Kentucky Moon
TTITLE19=And Old Time
TTITLE20=Gambiling Polka Dot Blues
TTITLE21=Never No Mo´ Blues
TTITLE22=Travelling Blues
EXTD=
EXTT0=
EXTT1=
EXTT2=
EXTT3=
EXTT4=
EXTT5=
EXTT6=
EXTT7=
EXTT8=
EXTT9=
EXTT10=
EXTT11=
EXTT12=
EXTT13=
EXTT14=
EXTT15=
EXTT16=
EXTT17=
EXTT18=
EXTT19=
EXTT20=
EXTT21=
EXTT22=
PLAYORDER=
